HIERARCHY
ROOT RootJoint
{
    OFFSET   0.000000   0.000000   0.000000
    CHANNELS 6 Xposition Yposition Zposition Xrotation Yrotation Zrotation
    JOINT pelvis_lowerback
    {
        OFFSET   0.000000   0.093605   0.000000
        CHANNELS 3 Xrotation Yrotation Zrotation
        JOINT lowerback_torso
        {
            OFFSET   0.000000   0.100000   0.000000
            CHANNELS 3 Xrotation Yrotation Zrotation
            JOINT torso_head
            {
                OFFSET   0.000000   0.282350   0.000000
                CHANNELS 3 Xrotation Yrotation Zrotation
                End Site
                {
                    OFFSET   0.000000   0.192650   0.000000
                }
            }
            JOINT rTorso_Clavicle
            {
                OFFSET  -0.001000   0.157500   0.000000
                CHANNELS 3 Xrotation Yrotation Zrotation
                JOINT rShoulder
                {
                    OFFSET  -0.117647   0.000000   0.000000
                    CHANNELS 3 Xrotation Yrotation Zrotation
                    JOINT rElbow
                    {
                        OFFSET  -0.245000   0.000000   0.000000
                        CHANNELS 3 Xrotation Yrotation Zrotation
                        JOINT rWrist
                        {
                            OFFSET  -0.240000   0.000000   0.000000
                            CHANNELS 3 Xrotation Yrotation Zrotation
                            End Site
                            {
                                OFFSET  -0.116353  -0.002500   0.000000
                            }
                        }
                    }
                }
            }
            JOINT lTorso_Clavicle
            {
                OFFSET   0.001000   0.157500   0.000000
                CHANNELS 3 Xrotation Yrotation Zrotation
                JOINT lShoulder
                {
                    OFFSET   0.117647   0.000000   0.000000
                    CHANNELS 3 Xrotation Yrotation Zrotation
                    JOINT lElbow
                    {
                        OFFSET   0.245000   0.000000   0.000000
                        CHANNELS 3 Xrotation Yrotation Zrotation
                        JOINT lWrist
                        {
                            OFFSET   0.240000   0.000000   0.000000
                            CHANNELS 3 Xrotation Yrotation Zrotation
                            End Site
                            {
                                OFFSET   0.116353  -0.002500   0.000000
                            }
                        }
                    }
                }
            }
        }
    }
    JOINT rHip
    {
        OFFSET  -0.100000  -0.051395   0.000000
        CHANNELS 3 Xrotation Yrotation Zrotation
        JOINT rKnee
        {
            OFFSET   0.000000  -0.410000   0.000000
            CHANNELS 3 Xrotation Yrotation Zrotation
            JOINT rAnkle
            {
                OFFSET   0.000000  -0.390000   0.000000
                CHANNELS 3 Xrotation Yrotation Zrotation
                JOINT rToeJoint
                {
                    OFFSET   0.000000  -0.050000   0.130000
                    CHANNELS 3 Xrotation Yrotation Zrotation
                    End Site
                    {
                        OFFSET  -0.010000   0.002000   0.060000
                    }
                }
            }
        }
    }
    JOINT lHip
    {
        OFFSET   0.100000  -0.051395   0.000000
        CHANNELS 3 Xrotation Yrotation Zrotation
        JOINT lKnee
        {
            OFFSET   0.000000  -0.410000   0.000000
            CHANNELS 3 Xrotation Yrotation Zrotation
            JOINT lAnkle
            {
                OFFSET   0.000000  -0.390000   0.000000
                CHANNELS 3 Xrotation Yrotation Zrotation
                JOINT lToeJoint
                {
                    OFFSET   0.000000  -0.050000   0.130000
                    CHANNELS 3 Xrotation Yrotation Zrotation
                    End Site
                    {
                        OFFSET   0.010000   0.002000   0.060000
                    }
                }
            }
        }
    }
}
MOTION
Frames: 12
Frame Time:   0.008333
 -2.161400   0.814381   3.966386  -1.994956  19.868734   2.767711   3.103252   0.593387  -0.495079  -0.121082  -0.252793  -2.438582  -1.799527   1.345111   1.527995   1.519751 -13.655742   4.131233   2.930307  -4.577744  28.741433   0.008054   8.038629  -0.005736   0.046165   3.672546  -1.169946   2.977356  10.269024 -11.302710   2.516702   1.768400 -41.855779  -0.012350  -7.834223  -0.006927   1.209861  -4.492309   6.211328 -20.198861 -12.152571 -26.357163  50.265765  -0.000001  -0.000038 -27.313131 -10.734212   0.633850   2.945756   0.000002   0.000015 -10.245246   5.741284  28.191711  14.200309   0.000202   0.000105  -0.383083   3.080086  -7.334296   0.984316   0.000454  -0.000213
 -2.160563   0.814322   3.966388  -2.146777  19.691666   2.837664   3.164745   0.639915  -0.607325   0.015600  -0.262279  -2.521678  -1.797062   1.349738   1.521582   1.599831 -13.455264   4.338871   3.224493  -4.308606  29.187522   0.009065   8.625264  -0.007188   0.185824   3.577377  -1.207205   3.084673  10.070991 -11.508652   2.788287   1.606397 -42.497342  -0.012142  -7.583096  -0.007106   1.264279  -4.495133   5.997377 -20.045272 -11.995206 -26.385783  50.237557  -0.000009  -0.000015 -27.262900 -10.692202   0.642000   3.037783   0.000045   0.000014 -10.005686   5.846108  28.181058  14.242271   0.000158   0.000047  -0.647680   2.989115  -7.456038   1.154424   0.000535  -0.000490
 -2.159724   0.814309   3.966402  -2.289685  19.514441   2.904801   3.216230   0.683453  -0.709736   0.142039  -0.265511  -2.599150  -1.795249   1.351754   1.516033   1.664972 -13.252251   4.530249   3.488755  -4.037183  29.603615   0.009682   9.187865  -0.008057   0.326462   3.581363  -1.241040   3.189611   9.886768 -11.702891   3.045035   1.456110 -43.101141  -0.011716  -7.344607  -0.007079   1.317400  -4.471683   5.766529 -19.892633 -11.842922 -26.413029  50.191762  -0.000021   0.000012 -27.208304 -10.649805   0.646084   3.122539   0.000078   0.000012  -9.776272   5.953690  28.163532  14.285487   0.000124   0.000000  -0.890690   2.915156  -7.562687   1.303271   0.000565  -0.000645
 -2.158895   0.814319   3.966425  -2.421478  19.345113   2.967704   3.259821   0.729511  -0.803666   0.256240  -0.261658  -2.669992  -1.794322   1.352981   1.511025   1.720775 -13.053813   4.707179   3.729545  -3.774563  29.990519   0.009937   9.717127  -0.008484   0.462005   3.621035  -1.272215   3.287650   9.715230 -11.882596   3.283689   1.314089 -43.663925  -0.011103  -7.121646  -0.006858   1.368079  -4.443070   5.539690 -19.746039 -11.700232 -26.440544  50.136563  -0.000033   0.000038 -27.153136 -10.608898   0.648417   3.200178   0.000100   0.000010  -9.561086   6.054879  28.142613  14.329025   0.000098  -0.000036  -1.113817   2.847020  -7.661272   1.439549   0.000569  -0.000735
 -2.158084   0.814339   3.966455  -2.543018  19.186325   3.026780   3.297441   0.778423  -0.889853   0.360015  -0.252012  -2.734167  -1.794288   1.354009   1.506374   1.769826 -12.862769   4.870702   3.950257  -3.523440  30.349890   0.009909  10.213254  -0.008597   0.592176   3.674440  -1.302287   3.378708   9.555550 -12.046712   3.505030   1.179755 -44.186429  -0.010365  -6.913719  -0.006502   1.416658  -4.415700   5.324789 -19.606222 -11.567572 -26.468814  50.076572  -0.000044   0.000060 -27.099437 -10.570803   0.649382   3.200893   0.000080   0.000008  -9.359930   6.148694  28.119042  14.371704   0.000078  -0.000063  -1.321034   2.782966  -7.753862   1.564603   0.000557  -0.000780
 -2.157296   0.814365   3.966491  -2.655223  19.038949   3.082370   3.330606   0.829392  -0.968633   0.455210  -0.237903  -2.791779  -1.794958   1.354987   1.502012   1.813493 -12.680246   5.021677   4.153152  -3.284634  30.683438   0.009672  10.677685  -0.008491   0.717097   3.734011  -1.332249   3.463453   9.407156 -12.195330   3.710435   1.053030 -44.670432  -0.009557  -6.719810  -0.006065   1.463247  -4.390487   5.124577 -19.473340 -11.444676 -26.497800  50.014534  -0.000053   0.000077 -27.048137 -10.536123   0.649405   3.203666   0.000066   0.000006  -9.172288   6.235490  28.093416  14.412656   0.000062  -0.000082  -1.514657   2.722709  -7.841223   1.679333   0.000535  -0.000789
 -2.156536   0.814392   3.966531  -2.758865  18.902950   3.134761   3.360520   0.881590  -1.040217   0.543347  -0.220400  -2.843010  -1.796136   1.355956   1.497922   1.852681 -12.506684   5.160912   4.340020  -3.058315  30.992842   0.009289  11.112132  -0.008235   0.836951   3.796489  -1.362688   3.542588   9.269482 -12.329111   3.901273   0.933832 -45.118132  -0.008724  -6.538881  -0.005585   1.507875  -4.366985   4.939774 -19.347472 -11.331004 -26.527324  49.952202  -0.000060   0.000088 -26.999646 -10.504971   0.648737   3.207959   0.000054   0.000005  -8.997517   6.315776  28.066246  14.451374   0.000050  -0.000093  -1.696026   2.666125  -7.923723   1.784567   0.000506  -0.000773
 -2.155644   0.814466   3.966494  -2.861978  18.735543   3.231804   3.394200   0.936621  -1.133909   0.644965  -0.214976  -2.911276  -1.838291   1.337330   1.497651   1.929832 -12.304154   5.317562   4.566013  -2.796670  31.326382   0.010085  11.762374  -0.009306   0.974004   3.735565  -1.495046   3.649907   9.114973 -12.429853   4.153932   0.765307 -45.579643  -0.007948  -6.370032  -0.005365   1.558689  -4.341872   4.753450 -19.237998 -11.174419 -26.606881  49.885959  -0.000069   0.000108 -26.939718 -10.462758   0.642975   3.217225   0.000049   0.000004  -8.809513   6.407771  27.987793  14.500661   0.000042  -0.000121  -1.863955   2.566335  -7.992266   1.879974   0.000465  -0.000803
 -2.154668   0.814578   3.966415  -2.953364  18.566991   3.329268   3.424584   0.990874  -1.219977   0.737874  -0.204120  -2.973717  -1.878441   1.317665   1.495712   1.991548 -12.098466   5.477317   4.767432  -2.534029  31.649372   0.010698  12.381980  -0.009917   1.111017   3.753996  -1.610386   3.752188   8.968525 -12.525984   4.390747   0.606334 -46.014074  -0.007198  -6.211182  -0.005087   1.611895  -4.311110   4.555619 -19.135573 -11.015477 -26.694138  49.801752  -0.000086   0.000136 -26.867423 -10.420454   0.633346   3.229506   0.000047   0.000003  -8.631988   6.492589  27.897392  14.557230   0.000038  -0.000156  -2.029021   2.467008  -8.064164   1.834811   0.000340  -0.000552
 -2.153638   0.814714   3.966312  -3.032615  18.404887   3.421545   3.451156   1.046897  -1.298057   0.821129  -0.187462  -3.026192  -1.915910   1.298850   1.493470   2.043205 -11.896790   5.636568   4.949831  -2.279390  31.958373   0.011067  12.964421  -0.010165   1.243166   3.803827  -1.705176   3.846676   8.830801 -12.614477   4.610020   0.455768 -46.418609  -0.006469  -6.063190  -0.004750   1.663359  -4.281414   4.361769 -19.038964 -10.862125 -26.783114  49.702800  -0.000107   0.000166 -26.786517 -10.380553   0.621248   3.243822   0.000048   0.000002  -8.466730   6.569528  27.801867  14.614132   0.000037  -0.000185  -2.192873   2.370711  -8.137455   1.789441   0.000238  -0.000351
 -2.152576   0.814866   3.966192  -3.100911  18.252001   3.507916   3.474685   1.104292  -1.368852   0.896116  -0.166585  -3.068908  -1.951155   1.281242   1.491239   2.087661 -11.702144   5.792770   5.116278  -2.035407  32.252226   0.011200  13.510366  -0.010147   1.370194   3.867161  -1.783259   3.933792   8.701612 -12.693292   4.812889   0.313389 -46.793136  -0.005771  -5.925536  -0.004378   1.712860  -4.255050   4.178615 -18.947735 -10.716611 -26.872111  49.593214  -0.000131   0.000194 -26.700081 -10.344064   0.607390   3.259556   0.000050   0.000001  -8.313683   6.639499  27.703678  14.668530   0.000038  -0.000204  -2.355126   2.278459  -8.211208   1.749861   0.000159  -0.000203
 -2.151500   0.815028   3.966060  -3.159540  18.108964   3.588534   3.496114   1.162168  -1.432952   0.964439  -0.142858  -3.102867  -1.984372   1.264863   1.489067   2.126519 -11.515850   5.944117   5.268772  -1.803050  32.530371   0.011127  14.021461  -0.009936   1.492191   3.937058  -1.848571   4.014355   8.580730 -12.761778   5.000792   0.179153 -47.138578  -0.005113  -5.797431  -0.003995   1.760384  -4.231829   4.009001 -18.861774 -10.579342 -26.960206  49.476482  -0.000155   0.000218 -26.610360 -10.311197   0.592268   3.276235   0.000052  -0.000000  -8.172242   6.703246  27.604365  14.719420   0.000039  -0.000215  -2.514963   2.190573  -8.284681   1.717739   0.000100  -0.000102
